<?xml version="1.0" encoding="UTF-8"?>
<?xml-stylesheet href="https://cdnjs.cloudflare.com/ajax/libs/font-awesome/6.7.2/css/all.min.css" type="text/css"?>
<svg aria-roledescription="er" role="graphics-document document" viewBox="0 0 539.35546875 928" style="max-width: 100%;" xmlns="http://www.w3.org/2000/svg" width="100%" id="graph-div" height="100%" xmlns:xlink="http://www.w3.org/1999/xlink"><style>#graph-div{font-family:"trebuchet ms",verdana,arial,sans-serif;font-size:16px;fill:#ccc;}#graph-div .error-icon{fill:#a44141;}#graph-div .error-text{fill:#ddd;stroke:#ddd;}#graph-div .edge-thickness-normal{stroke-width:1px;}#graph-div .edge-thickness-thick{stroke-width:3.5px;}#graph-div .edge-pattern-solid{stroke-dasharray:0;}#graph-div .edge-thickness-invisible{stroke-width:0;fill:none;}#graph-div .edge-pattern-dashed{stroke-dasharray:3;}#graph-div .edge-pattern-dotted{stroke-dasharray:2;}#graph-div .marker{fill:lightgrey;stroke:lightgrey;}#graph-div .marker.cross{stroke:lightgrey;}#graph-div svg{font-family:"trebuchet ms",verdana,arial,sans-serif;font-size:16px;}#graph-div p{margin:0;}#graph-div .entityBox{fill:#1f2020;stroke:#ccc;}#graph-div .attributeBoxOdd{fill:hsl(0, 0%, 32%);stroke:#ccc;}#graph-div .attributeBoxEven{fill:hsl(0, 0%, 22%);stroke:#ccc;}#graph-div .relationshipLabelBox{fill:hsl(20, 1.5873015873%, 12.3529411765%);opacity:0.7;background-color:hsl(20, 1.5873015873%, 12.3529411765%);}#graph-div .relationshipLabelBox rect{opacity:0.5;}#graph-div .relationshipLine{stroke:lightgrey;}#graph-div .entityTitleText{text-anchor:middle;font-size:18px;fill:#ccc;}#graph-div #MD_PARENT_START{fill:#f5f5f5!important;stroke:lightgrey!important;stroke-width:1;}#graph-div #MD_PARENT_END{fill:#f5f5f5!important;stroke:lightgrey!important;stroke-width:1;}#graph-div :root{--mermaid-font-family:"trebuchet ms",verdana,arial,sans-serif;}</style><g></g><defs><marker orient="auto" markerHeight="240" markerWidth="190" refY="7" refX="0" id="MD_PARENT_START"><path d="M 18,7 L9,13 L1,7 L9,1 Z"></path></marker></defs><defs><marker orient="auto" markerHeight="28" markerWidth="20" refY="7" refX="19" id="MD_PARENT_END"><path d="M 18,7 L9,13 L1,7 L9,1 Z"></path></marker></defs><defs><marker orient="auto" markerHeight="18" markerWidth="18" refY="9" refX="0" id="ONLY_ONE_START"><path d="M9,0 L9,18 M15,0 L15,18" fill="none" stroke="gray"></path></marker></defs><defs><marker orient="auto" markerHeight="18" markerWidth="18" refY="9" refX="18" id="ONLY_ONE_END"><path d="M3,0 L3,18 M9,0 L9,18" fill="none" stroke="gray"></path></marker></defs><defs><marker orient="auto" markerHeight="18" markerWidth="30" refY="9" refX="0" id="ZERO_OR_ONE_START"><circle r="6" cy="9" cx="21" fill="white" stroke="gray"></circle><path d="M9,0 L9,18" fill="none" stroke="gray"></path></marker></defs><defs><marker orient="auto" markerHeight="18" markerWidth="30" refY="9" refX="30" id="ZERO_OR_ONE_END"><circle r="6" cy="9" cx="9" fill="white" stroke="gray"></circle><path d="M21,0 L21,18" fill="none" stroke="gray"></path></marker></defs><defs><marker orient="auto" markerHeight="36" markerWidth="45" refY="18" refX="18" id="ONE_OR_MORE_START"><path d="M0,18 Q 18,0 36,18 Q 18,36 0,18 M42,9 L42,27" fill="none" stroke="gray"></path></marker></defs><defs><marker orient="auto" markerHeight="36" markerWidth="45" refY="18" refX="27" id="ONE_OR_MORE_END"><path d="M3,9 L3,27 M9,18 Q27,0 45,18 Q27,36 9,18" fill="none" stroke="gray"></path></marker></defs><defs><marker orient="auto" markerHeight="36" markerWidth="57" refY="18" refX="18" id="ZERO_OR_MORE_START"><circle r="6" cy="18" cx="48" fill="white" stroke="gray"></circle><path d="M0,18 Q18,0 36,18 Q18,36 0,18" fill="none" stroke="gray"></path></marker></defs><defs><marker orient="auto" markerHeight="36" markerWidth="57" refY="18" refX="39" id="ZERO_OR_MORE_END"><circle r="6" cy="18" cx="9" fill="white" stroke="gray"></circle><path d="M21,18 Q39,0 57,18 Q39,36 21,18" fill="none" stroke="gray"></path></marker></defs><path style="stroke: gray; fill: none;" marker-start="url(#ONLY_ONE_START)" marker-end="url(#ZERO_OR_MORE_END)" d="M70.497,542L65.321,550.333C60.145,558.667,49.793,575.333,46.894,592C43.995,608.667,48.549,625.333,50.826,633.667L53.103,642" class="er relationshipLine"></path><path style="stroke: gray; fill: none;" marker-start="url(#ONLY_ONE_START)" marker-end="url(#ZERO_OR_MORE_END)" d="M221.031,504.7L237.139,519.25C253.247,533.8,285.462,562.9,312.548,593.117C339.634,623.333,361.591,654.667,372.569,670.333L383.548,686" class="er relationshipLine"></path><path style="stroke: gray; fill: none;" marker-start="url(#ONLY_ONE_START)" marker-end="url(#ZERO_OR_MORE_END)" d="M395.914,220L395.914,228.333C395.914,236.667,395.914,253.333,395.914,273.667C395.914,294,395.914,318,395.914,330L395.914,342" class="er relationshipLine"></path><path style="stroke: gray; fill: none;" marker-start="url(#ONLY_ONE_START)" marker-end="url(#ZERO_OR_MORE_END)" d="M321.031,498.641L303.806,514.201C286.58,529.761,252.129,560.88,225.104,590.424C198.079,619.968,178.481,647.936,168.682,661.92L158.883,675.903" class="er relationshipLine"></path><path style="stroke: gray; fill: none;" marker-start="url(#ONLY_ONE_START)" marker-end="url(#ZERO_OR_MORE_END)" d="M451.194,520L458.647,532C466.1,544,481.007,568,484.18,595.667C487.353,623.333,478.792,654.667,474.512,670.333L470.231,686" class="er relationshipLine"></path><g transform="translate(57.8515625,320 )" id="entity-USERS-1e82e395-936c-57a7-8ba9-b08f03574b93"><rect height="222" width="163.1796875" y="0" x="0" class="er entityBox"></rect><text transform="translate(81.58984375,12)" style="dominant-baseline: middle; text-anchor: middle; font-size: 12px;" y="0" x="0" id="text-entity-USERS-1e82e395-936c-57a7-8ba9-b08f03574b93" class="er entityLabel">USERS</text><rect height="22" width="51.6328125" y="24" x="0" class="er attributeBoxOdd"></rect><text transform="translate(5,35)" style="dominant-baseline: middle; font-size: 10.2px;" y="0" x="0" id="text-entity-USERS-1e82e395-936c-57a7-8ba9-b08f03574b93-attr-1-type" class="er entityLabel">int</text><rect height="22" width="89.0546875" y="24" x="51.6328125" class="er attributeBoxOdd"></rect><text transform="translate(56.6328125,35)" style="dominant-baseline: middle; font-size: 10.2px;" y="0" x="0" id="text-entity-USERS-1e82e395-936c-57a7-8ba9-b08f03574b93-attr-1-name" class="er entityLabel">user_id</text><rect height="22" width="22.4921875" y="24" x="140.6875" class="er attributeBoxOdd"></rect><text transform="translate(145.6875,35)" style="dominant-baseline: middle; font-size: 10.2px;" y="0" x="0" id="text-entity-USERS-1e82e395-936c-57a7-8ba9-b08f03574b93-attr-1-key" class="er entityLabel">PK</text><rect height="22" width="51.6328125" y="46" x="0" class="er attributeBoxEven"></rect><text transform="translate(5,57)" style="dominant-baseline: middle; font-size: 10.2px;" y="0" x="0" id="text-entity-USERS-1e82e395-936c-57a7-8ba9-b08f03574b93-attr-2-type" class="er entityLabel">string</text><rect height="22" width="89.0546875" y="46" x="51.6328125" class="er attributeBoxEven"></rect><text transform="translate(56.6328125,57)" style="dominant-baseline: middle; font-size: 10.2px;" y="0" x="0" id="text-entity-USERS-1e82e395-936c-57a7-8ba9-b08f03574b93-attr-2-name" class="er entityLabel">username</text><rect height="22" width="22.4921875" y="46" x="140.6875" class="er attributeBoxEven"></rect><text transform="translate(145.6875,57)" style="dominant-baseline: middle; font-size: 10.2px;" y="0" x="0" id="text-entity-USERS-1e82e395-936c-57a7-8ba9-b08f03574b93-attr-2-key" class="er entityLabel">UK</text><rect height="22" width="51.6328125" y="68" x="0" class="er attributeBoxOdd"></rect><text transform="translate(5,79)" style="dominant-baseline: middle; font-size: 10.2px;" y="0" x="0" id="text-entity-USERS-1e82e395-936c-57a7-8ba9-b08f03574b93-attr-3-type" class="er entityLabel">string</text><rect height="22" width="89.0546875" y="68" x="51.6328125" class="er attributeBoxOdd"></rect><text transform="translate(56.6328125,79)" style="dominant-baseline: middle; font-size: 10.2px;" y="0" x="0" id="text-entity-USERS-1e82e395-936c-57a7-8ba9-b08f03574b93-attr-3-name" class="er entityLabel">password</text><rect height="22" width="22.4921875" y="68" x="140.6875" class="er attributeBoxOdd"></rect><text transform="translate(145.6875,79)" style="dominant-baseline: middle; font-size: 10.2px;" y="0" x="0" id="text-entity-USERS-1e82e395-936c-57a7-8ba9-b08f03574b93-attr-3-key" class="er entityLabel"></text><rect height="22" width="51.6328125" y="90" x="0" class="er attributeBoxEven"></rect><text transform="translate(5,101)" style="dominant-baseline: middle; font-size: 10.2px;" y="0" x="0" id="text-entity-USERS-1e82e395-936c-57a7-8ba9-b08f03574b93-attr-4-type" class="er entityLabel">string</text><rect height="22" width="89.0546875" y="90" x="51.6328125" class="er attributeBoxEven"></rect><text transform="translate(56.6328125,101)" style="dominant-baseline: middle; font-size: 10.2px;" y="0" x="0" id="text-entity-USERS-1e82e395-936c-57a7-8ba9-b08f03574b93-attr-4-name" class="er entityLabel">email</text><rect height="22" width="22.4921875" y="90" x="140.6875" class="er attributeBoxEven"></rect><text transform="translate(145.6875,101)" style="dominant-baseline: middle; font-size: 10.2px;" y="0" x="0" id="text-entity-USERS-1e82e395-936c-57a7-8ba9-b08f03574b93-attr-4-key" class="er entityLabel">UK</text><rect height="22" width="51.6328125" y="112" x="0" class="er attributeBoxOdd"></rect><text transform="translate(5,123)" style="dominant-baseline: middle; font-size: 10.2px;" y="0" x="0" id="text-entity-USERS-1e82e395-936c-57a7-8ba9-b08f03574b93-attr-5-type" class="er entityLabel">string</text><rect height="22" width="89.0546875" y="112" x="51.6328125" class="er attributeBoxOdd"></rect><text transform="translate(56.6328125,123)" style="dominant-baseline: middle; font-size: 10.2px;" y="0" x="0" id="text-entity-USERS-1e82e395-936c-57a7-8ba9-b08f03574b93-attr-5-name" class="er entityLabel">display_name</text><rect height="22" width="22.4921875" y="112" x="140.6875" class="er attributeBoxOdd"></rect><text transform="translate(145.6875,123)" style="dominant-baseline: middle; font-size: 10.2px;" y="0" x="0" id="text-entity-USERS-1e82e395-936c-57a7-8ba9-b08f03574b93-attr-5-key" class="er entityLabel"></text><rect height="22" width="51.6328125" y="134" x="0" class="er attributeBoxEven"></rect><text transform="translate(5,145)" style="dominant-baseline: middle; font-size: 10.2px;" y="0" x="0" id="text-entity-USERS-1e82e395-936c-57a7-8ba9-b08f03574b93-attr-6-type" class="er entityLabel">string</text><rect height="22" width="89.0546875" y="134" x="51.6328125" class="er attributeBoxEven"></rect><text transform="translate(56.6328125,145)" style="dominant-baseline: middle; font-size: 10.2px;" y="0" x="0" id="text-entity-USERS-1e82e395-936c-57a7-8ba9-b08f03574b93-attr-6-name" class="er entityLabel">profile_image</text><rect height="22" width="22.4921875" y="134" x="140.6875" class="er attributeBoxEven"></rect><text transform="translate(145.6875,145)" style="dominant-baseline: middle; font-size: 10.2px;" y="0" x="0" id="text-entity-USERS-1e82e395-936c-57a7-8ba9-b08f03574b93-attr-6-key" class="er entityLabel"></text><rect height="22" width="51.6328125" y="156" x="0" class="er attributeBoxOdd"></rect><text transform="translate(5,167)" style="dominant-baseline: middle; font-size: 10.2px;" y="0" x="0" id="text-entity-USERS-1e82e395-936c-57a7-8ba9-b08f03574b93-attr-7-type" class="er entityLabel">datetime</text><rect height="22" width="89.0546875" y="156" x="51.6328125" class="er attributeBoxOdd"></rect><text transform="translate(56.6328125,167)" style="dominant-baseline: middle; font-size: 10.2px;" y="0" x="0" id="text-entity-USERS-1e82e395-936c-57a7-8ba9-b08f03574b93-attr-7-name" class="er entityLabel">registration_date</text><rect height="22" width="22.4921875" y="156" x="140.6875" class="er attributeBoxOdd"></rect><text transform="translate(145.6875,167)" style="dominant-baseline: middle; font-size: 10.2px;" y="0" x="0" id="text-entity-USERS-1e82e395-936c-57a7-8ba9-b08f03574b93-attr-7-key" class="er entityLabel"></text><rect height="22" width="51.6328125" y="178" x="0" class="er attributeBoxEven"></rect><text transform="translate(5,189)" style="dominant-baseline: middle; font-size: 10.2px;" y="0" x="0" id="text-entity-USERS-1e82e395-936c-57a7-8ba9-b08f03574b93-attr-8-type" class="er entityLabel">datetime</text><rect height="22" width="89.0546875" y="178" x="51.6328125" class="er attributeBoxEven"></rect><text transform="translate(56.6328125,189)" style="dominant-baseline: middle; font-size: 10.2px;" y="0" x="0" id="text-entity-USERS-1e82e395-936c-57a7-8ba9-b08f03574b93-attr-8-name" class="er entityLabel">last_login</text><rect height="22" width="22.4921875" y="178" x="140.6875" class="er attributeBoxEven"></rect><text transform="translate(145.6875,189)" style="dominant-baseline: middle; font-size: 10.2px;" y="0" x="0" id="text-entity-USERS-1e82e395-936c-57a7-8ba9-b08f03574b93-attr-8-key" class="er entityLabel"></text><rect height="22" width="51.6328125" y="200" x="0" class="er attributeBoxOdd"></rect><text transform="translate(5,211)" style="dominant-baseline: middle; font-size: 10.2px;" y="0" x="0" id="text-entity-USERS-1e82e395-936c-57a7-8ba9-b08f03574b93-attr-9-type" class="er entityLabel">boolean</text><rect height="22" width="89.0546875" y="200" x="51.6328125" class="er attributeBoxOdd"></rect><text transform="translate(56.6328125,211)" style="dominant-baseline: middle; font-size: 10.2px;" y="0" x="0" id="text-entity-USERS-1e82e395-936c-57a7-8ba9-b08f03574b93-attr-9-name" class="er entityLabel">is_social_login</text><rect height="22" width="22.4921875" y="200" x="140.6875" class="er attributeBoxOdd"></rect><text transform="translate(145.6875,211)" style="dominant-baseline: middle; font-size: 10.2px;" y="0" x="0" id="text-entity-USERS-1e82e395-936c-57a7-8ba9-b08f03574b93-attr-9-key" class="er entityLabel"></text></g><g transform="translate(317.4453125,20 )" id="entity-SONGS-10541994-dbf6-5bfe-96a2-2f72bf0a0b65"><rect height="200" width="156.9375" y="0" x="0" class="er entityBox"></rect><text transform="translate(78.46875,12)" style="dominant-baseline: middle; text-anchor: middle; font-size: 12px;" y="0" x="0" id="text-entity-SONGS-10541994-dbf6-5bfe-96a2-2f72bf0a0b65" class="er entityLabel">SONGS</text><rect height="22" width="51.6328125" y="24" x="0" class="er attributeBoxOdd"></rect><text transform="translate(5,35)" style="dominant-baseline: middle; font-size: 10.2px;" y="0" x="0" id="text-entity-SONGS-10541994-dbf6-5bfe-96a2-2f72bf0a0b65-attr-1-type" class="er entityLabel">int</text><rect height="22" width="82.8125" y="24" x="51.6328125" class="er attributeBoxOdd"></rect><text transform="translate(56.6328125,35)" style="dominant-baseline: middle; font-size: 10.2px;" y="0" x="0" id="text-entity-SONGS-10541994-dbf6-5bfe-96a2-2f72bf0a0b65-attr-1-name" class="er entityLabel">song_id</text><rect height="22" width="22.4921875" y="24" x="134.4453125" class="er attributeBoxOdd"></rect><text transform="translate(139.4453125,35)" style="dominant-baseline: middle; font-size: 10.2px;" y="0" x="0" id="text-entity-SONGS-10541994-dbf6-5bfe-96a2-2f72bf0a0b65-attr-1-key" class="er entityLabel">PK</text><rect height="22" width="51.6328125" y="46" x="0" class="er attributeBoxEven"></rect><text transform="translate(5,57)" style="dominant-baseline: middle; font-size: 10.2px;" y="0" x="0" id="text-entity-SONGS-10541994-dbf6-5bfe-96a2-2f72bf0a0b65-attr-2-type" class="er entityLabel">string</text><rect height="22" width="82.8125" y="46" x="51.6328125" class="er attributeBoxEven"></rect><text transform="translate(56.6328125,57)" style="dominant-baseline: middle; font-size: 10.2px;" y="0" x="0" id="text-entity-SONGS-10541994-dbf6-5bfe-96a2-2f72bf0a0b65-attr-2-name" class="er entityLabel">title</text><rect height="22" width="22.4921875" y="46" x="134.4453125" class="er attributeBoxEven"></rect><text transform="translate(139.4453125,57)" style="dominant-baseline: middle; font-size: 10.2px;" y="0" x="0" id="text-entity-SONGS-10541994-dbf6-5bfe-96a2-2f72bf0a0b65-attr-2-key" class="er entityLabel">UK</text><rect height="22" width="51.6328125" y="68" x="0" class="er attributeBoxOdd"></rect><text transform="translate(5,79)" style="dominant-baseline: middle; font-size: 10.2px;" y="0" x="0" id="text-entity-SONGS-10541994-dbf6-5bfe-96a2-2f72bf0a0b65-attr-3-type" class="er entityLabel">string</text><rect height="22" width="82.8125" y="68" x="51.6328125" class="er attributeBoxOdd"></rect><text transform="translate(56.6328125,79)" style="dominant-baseline: middle; font-size: 10.2px;" y="0" x="0" id="text-entity-SONGS-10541994-dbf6-5bfe-96a2-2f72bf0a0b65-attr-3-name" class="er entityLabel">artist</text><rect height="22" width="22.4921875" y="68" x="134.4453125" class="er attributeBoxOdd"></rect><text transform="translate(139.4453125,79)" style="dominant-baseline: middle; font-size: 10.2px;" y="0" x="0" id="text-entity-SONGS-10541994-dbf6-5bfe-96a2-2f72bf0a0b65-attr-3-key" class="er entityLabel"></text><rect height="22" width="51.6328125" y="90" x="0" class="er attributeBoxEven"></rect><text transform="translate(5,101)" style="dominant-baseline: middle; font-size: 10.2px;" y="0" x="0" id="text-entity-SONGS-10541994-dbf6-5bfe-96a2-2f72bf0a0b65-attr-4-type" class="er entityLabel">int</text><rect height="22" width="82.8125" y="90" x="51.6328125" class="er attributeBoxEven"></rect><text transform="translate(56.6328125,101)" style="dominant-baseline: middle; font-size: 10.2px;" y="0" x="0" id="text-entity-SONGS-10541994-dbf6-5bfe-96a2-2f72bf0a0b65-attr-4-name" class="er entityLabel">bpm</text><rect height="22" width="22.4921875" y="90" x="134.4453125" class="er attributeBoxEven"></rect><text transform="translate(139.4453125,101)" style="dominant-baseline: middle; font-size: 10.2px;" y="0" x="0" id="text-entity-SONGS-10541994-dbf6-5bfe-96a2-2f72bf0a0b65-attr-4-key" class="er entityLabel"></text><rect height="22" width="51.6328125" y="112" x="0" class="er attributeBoxOdd"></rect><text transform="translate(5,123)" style="dominant-baseline: middle; font-size: 10.2px;" y="0" x="0" id="text-entity-SONGS-10541994-dbf6-5bfe-96a2-2f72bf0a0b65-attr-5-type" class="er entityLabel">string</text><rect height="22" width="82.8125" y="112" x="51.6328125" class="er attributeBoxOdd"></rect><text transform="translate(56.6328125,123)" style="dominant-baseline: middle; font-size: 10.2px;" y="0" x="0" id="text-entity-SONGS-10541994-dbf6-5bfe-96a2-2f72bf0a0b65-attr-5-name" class="er entityLabel">duration</text><rect height="22" width="22.4921875" y="112" x="134.4453125" class="er attributeBoxOdd"></rect><text transform="translate(139.4453125,123)" style="dominant-baseline: middle; font-size: 10.2px;" y="0" x="0" id="text-entity-SONGS-10541994-dbf6-5bfe-96a2-2f72bf0a0b65-attr-5-key" class="er entityLabel"></text><rect height="22" width="51.6328125" y="134" x="0" class="er attributeBoxEven"></rect><text transform="translate(5,145)" style="dominant-baseline: middle; font-size: 10.2px;" y="0" x="0" id="text-entity-SONGS-10541994-dbf6-5bfe-96a2-2f72bf0a0b65-attr-6-type" class="er entityLabel">string</text><rect height="22" width="82.8125" y="134" x="51.6328125" class="er attributeBoxEven"></rect><text transform="translate(56.6328125,145)" style="dominant-baseline: middle; font-size: 10.2px;" y="0" x="0" id="text-entity-SONGS-10541994-dbf6-5bfe-96a2-2f72bf0a0b65-attr-6-name" class="er entityLabel">genre</text><rect height="22" width="22.4921875" y="134" x="134.4453125" class="er attributeBoxEven"></rect><text transform="translate(139.4453125,145)" style="dominant-baseline: middle; font-size: 10.2px;" y="0" x="0" id="text-entity-SONGS-10541994-dbf6-5bfe-96a2-2f72bf0a0b65-attr-6-key" class="er entityLabel"></text><rect height="22" width="51.6328125" y="156" x="0" class="er attributeBoxOdd"></rect><text transform="translate(5,167)" style="dominant-baseline: middle; font-size: 10.2px;" y="0" x="0" id="text-entity-SONGS-10541994-dbf6-5bfe-96a2-2f72bf0a0b65-attr-7-type" class="er entityLabel">datetime</text><rect height="22" width="82.8125" y="156" x="51.6328125" class="er attributeBoxOdd"></rect><text transform="translate(56.6328125,167)" style="dominant-baseline: middle; font-size: 10.2px;" y="0" x="0" id="text-entity-SONGS-10541994-dbf6-5bfe-96a2-2f72bf0a0b65-attr-7-name" class="er entityLabel">added_date</text><rect height="22" width="22.4921875" y="156" x="134.4453125" class="er attributeBoxOdd"></rect><text transform="translate(139.4453125,167)" style="dominant-baseline: middle; font-size: 10.2px;" y="0" x="0" id="text-entity-SONGS-10541994-dbf6-5bfe-96a2-2f72bf0a0b65-attr-7-key" class="er entityLabel"></text><rect height="22" width="51.6328125" y="178" x="0" class="er attributeBoxEven"></rect><text transform="translate(5,189)" style="dominant-baseline: middle; font-size: 10.2px;" y="0" x="0" id="text-entity-SONGS-10541994-dbf6-5bfe-96a2-2f72bf0a0b65-attr-8-type" class="er entityLabel">string</text><rect height="22" width="82.8125" y="178" x="51.6328125" class="er attributeBoxEven"></rect><text transform="translate(56.6328125,189)" style="dominant-baseline: middle; font-size: 10.2px;" y="0" x="0" id="text-entity-SONGS-10541994-dbf6-5bfe-96a2-2f72bf0a0b65-attr-8-name" class="er entityLabel">difficulty_count</text><rect height="22" width="22.4921875" y="178" x="134.4453125" class="er attributeBoxEven"></rect><text transform="translate(139.4453125,189)" style="dominant-baseline: middle; font-size: 10.2px;" y="0" x="0" id="text-entity-SONGS-10541994-dbf6-5bfe-96a2-2f72bf0a0b65-attr-8-key" class="er entityLabel"></text></g><g transform="translate(321.03125,342 )" id="entity-DIFFICULTIES-02e58e69-8783-5e29-95b1-07ba71f129d1"><rect height="178" width="149.765625" y="0" x="0" class="er entityBox"></rect><text transform="translate(74.8828125,12)" style="dominant-baseline: middle; text-anchor: middle; font-size: 12px;" y="0" x="0" id="text-entity-DIFFICULTIES-02e58e69-8783-5e29-95b1-07ba71f129d1" class="er entityLabel">DIFFICULTIES</text><rect height="22" width="46.140625" y="24" x="0" class="er attributeBoxOdd"></rect><text transform="translate(5,35)" style="dominant-baseline: middle; font-size: 10.2px;" y="0" x="0" id="text-entity-DIFFICULTIES-02e58e69-8783-5e29-95b1-07ba71f129d1-attr-1-type" class="er entityLabel">int</text><rect height="22" width="82.0625" y="24" x="46.140625" class="er attributeBoxOdd"></rect><text transform="translate(51.140625,35)" style="dominant-baseline: middle; font-size: 10.2px;" y="0" x="0" id="text-entity-DIFFICULTIES-02e58e69-8783-5e29-95b1-07ba71f129d1-attr-1-name" class="er entityLabel">difficulty_id</text><rect height="22" width="21.5625" y="24" x="128.203125" class="er attributeBoxOdd"></rect><text transform="translate(133.203125,35)" style="dominant-baseline: middle; font-size: 10.2px;" y="0" x="0" id="text-entity-DIFFICULTIES-02e58e69-8783-5e29-95b1-07ba71f129d1-attr-1-key" class="er entityLabel">PK</text><rect height="22" width="46.140625" y="46" x="0" class="er attributeBoxEven"></rect><text transform="translate(5,57)" style="dominant-baseline: middle; font-size: 10.2px;" y="0" x="0" id="text-entity-DIFFICULTIES-02e58e69-8783-5e29-95b1-07ba71f129d1-attr-2-type" class="er entityLabel">int</text><rect height="22" width="82.0625" y="46" x="46.140625" class="er attributeBoxEven"></rect><text transform="translate(51.140625,57)" style="dominant-baseline: middle; font-size: 10.2px;" y="0" x="0" id="text-entity-DIFFICULTIES-02e58e69-8783-5e29-95b1-07ba71f129d1-attr-2-name" class="er entityLabel">song_id</text><rect height="22" width="21.5625" y="46" x="128.203125" class="er attributeBoxEven"></rect><text transform="translate(133.203125,57)" style="dominant-baseline: middle; font-size: 10.2px;" y="0" x="0" id="text-entity-DIFFICULTIES-02e58e69-8783-5e29-95b1-07ba71f129d1-attr-2-key" class="er entityLabel">FK</text><rect height="22" width="46.140625" y="68" x="0" class="er attributeBoxOdd"></rect><text transform="translate(5,79)" style="dominant-baseline: middle; font-size: 10.2px;" y="0" x="0" id="text-entity-DIFFICULTIES-02e58e69-8783-5e29-95b1-07ba71f129d1-attr-3-type" class="er entityLabel">string</text><rect height="22" width="82.0625" y="68" x="46.140625" class="er attributeBoxOdd"></rect><text transform="translate(51.140625,79)" style="dominant-baseline: middle; font-size: 10.2px;" y="0" x="0" id="text-entity-DIFFICULTIES-02e58e69-8783-5e29-95b1-07ba71f129d1-attr-3-name" class="er entityLabel">difficulty_name</text><rect height="22" width="21.5625" y="68" x="128.203125" class="er attributeBoxOdd"></rect><text transform="translate(133.203125,79)" style="dominant-baseline: middle; font-size: 10.2px;" y="0" x="0" id="text-entity-DIFFICULTIES-02e58e69-8783-5e29-95b1-07ba71f129d1-attr-3-key" class="er entityLabel"></text><rect height="22" width="46.140625" y="90" x="0" class="er attributeBoxEven"></rect><text transform="translate(5,101)" style="dominant-baseline: middle; font-size: 10.2px;" y="0" x="0" id="text-entity-DIFFICULTIES-02e58e69-8783-5e29-95b1-07ba71f129d1-attr-4-type" class="er entityLabel">int</text><rect height="22" width="82.0625" y="90" x="46.140625" class="er attributeBoxEven"></rect><text transform="translate(51.140625,101)" style="dominant-baseline: middle; font-size: 10.2px;" y="0" x="0" id="text-entity-DIFFICULTIES-02e58e69-8783-5e29-95b1-07ba71f129d1-attr-4-name" class="er entityLabel">difficulty_level</text><rect height="22" width="21.5625" y="90" x="128.203125" class="er attributeBoxEven"></rect><text transform="translate(133.203125,101)" style="dominant-baseline: middle; font-size: 10.2px;" y="0" x="0" id="text-entity-DIFFICULTIES-02e58e69-8783-5e29-95b1-07ba71f129d1-attr-4-key" class="er entityLabel"></text><rect height="22" width="46.140625" y="112" x="0" class="er attributeBoxOdd"></rect><text transform="translate(5,123)" style="dominant-baseline: middle; font-size: 10.2px;" y="0" x="0" id="text-entity-DIFFICULTIES-02e58e69-8783-5e29-95b1-07ba71f129d1-attr-5-type" class="er entityLabel">string</text><rect height="22" width="82.0625" y="112" x="46.140625" class="er attributeBoxOdd"></rect><text transform="translate(51.140625,123)" style="dominant-baseline: middle; font-size: 10.2px;" y="0" x="0" id="text-entity-DIFFICULTIES-02e58e69-8783-5e29-95b1-07ba71f129d1-attr-5-name" class="er entityLabel">mode_name</text><rect height="22" width="21.5625" y="112" x="128.203125" class="er attributeBoxOdd"></rect><text transform="translate(133.203125,123)" style="dominant-baseline: middle; font-size: 10.2px;" y="0" x="0" id="text-entity-DIFFICULTIES-02e58e69-8783-5e29-95b1-07ba71f129d1-attr-5-key" class="er entityLabel"></text><rect height="22" width="46.140625" y="134" x="0" class="er attributeBoxEven"></rect><text transform="translate(5,145)" style="dominant-baseline: middle; font-size: 10.2px;" y="0" x="0" id="text-entity-DIFFICULTIES-02e58e69-8783-5e29-95b1-07ba71f129d1-attr-6-type" class="er entityLabel">string</text><rect height="22" width="82.0625" y="134" x="46.140625" class="er attributeBoxEven"></rect><text transform="translate(51.140625,145)" style="dominant-baseline: middle; font-size: 10.2px;" y="0" x="0" id="text-entity-DIFFICULTIES-02e58e69-8783-5e29-95b1-07ba71f129d1-attr-6-name" class="er entityLabel">notes_count</text><rect height="22" width="21.5625" y="134" x="128.203125" class="er attributeBoxEven"></rect><text transform="translate(133.203125,145)" style="dominant-baseline: middle; font-size: 10.2px;" y="0" x="0" id="text-entity-DIFFICULTIES-02e58e69-8783-5e29-95b1-07ba71f129d1-attr-6-key" class="er entityLabel"></text><rect height="22" width="46.140625" y="156" x="0" class="er attributeBoxOdd"></rect><text transform="translate(5,167)" style="dominant-baseline: middle; font-size: 10.2px;" y="0" x="0" id="text-entity-DIFFICULTIES-02e58e69-8783-5e29-95b1-07ba71f129d1-attr-7-type" class="er entityLabel">boolean</text><rect height="22" width="82.0625" y="156" x="46.140625" class="er attributeBoxOdd"></rect><text transform="translate(51.140625,167)" style="dominant-baseline: middle; font-size: 10.2px;" y="0" x="0" id="text-entity-DIFFICULTIES-02e58e69-8783-5e29-95b1-07ba71f129d1-attr-7-name" class="er entityLabel">is_ranked</text><rect height="22" width="21.5625" y="156" x="128.203125" class="er attributeBoxOdd"></rect><text transform="translate(133.203125,167)" style="dominant-baseline: middle; font-size: 10.2px;" y="0" x="0" id="text-entity-DIFFICULTIES-02e58e69-8783-5e29-95b1-07ba71f129d1-attr-7-key" class="er entityLabel"></text></g><g transform="translate(20,642 )" id="entity-RECORDS-70f28e92-d40b-5deb-8a4c-3a369250c583"><rect height="266" width="138.8828125" y="0" x="0" class="er entityBox"></rect><text transform="translate(69.44140625,12)" style="dominant-baseline: middle; text-anchor: middle; font-size: 12px;" y="0" x="0" id="text-entity-RECORDS-70f28e92-d40b-5deb-8a4c-3a369250c583" class="er entityLabel">RECORDS</text><rect height="22" width="51.6328125" y="24" x="0" class="er attributeBoxOdd"></rect><text transform="translate(5,35)" style="dominant-baseline: middle; font-size: 10.2px;" y="0" x="0" id="text-entity-RECORDS-70f28e92-d40b-5deb-8a4c-3a369250c583-attr-1-type" class="er entityLabel">int</text><rect height="22" width="65.6875" y="24" x="51.6328125" class="er attributeBoxOdd"></rect><text transform="translate(56.6328125,35)" style="dominant-baseline: middle; font-size: 10.2px;" y="0" x="0" id="text-entity-RECORDS-70f28e92-d40b-5deb-8a4c-3a369250c583-attr-1-name" class="er entityLabel">record_id</text><rect height="22" width="21.5625" y="24" x="117.3203125" class="er attributeBoxOdd"></rect><text transform="translate(122.3203125,35)" style="dominant-baseline: middle; font-size: 10.2px;" y="0" x="0" id="text-entity-RECORDS-70f28e92-d40b-5deb-8a4c-3a369250c583-attr-1-key" class="er entityLabel">PK</text><rect height="22" width="51.6328125" y="46" x="0" class="er attributeBoxEven"></rect><text transform="translate(5,57)" style="dominant-baseline: middle; font-size: 10.2px;" y="0" x="0" id="text-entity-RECORDS-70f28e92-d40b-5deb-8a4c-3a369250c583-attr-2-type" class="er entityLabel">int</text><rect height="22" width="65.6875" y="46" x="51.6328125" class="er attributeBoxEven"></rect><text transform="translate(56.6328125,57)" style="dominant-baseline: middle; font-size: 10.2px;" y="0" x="0" id="text-entity-RECORDS-70f28e92-d40b-5deb-8a4c-3a369250c583-attr-2-name" class="er entityLabel">user_id</text><rect height="22" width="21.5625" y="46" x="117.3203125" class="er attributeBoxEven"></rect><text transform="translate(122.3203125,57)" style="dominant-baseline: middle; font-size: 10.2px;" y="0" x="0" id="text-entity-RECORDS-70f28e92-d40b-5deb-8a4c-3a369250c583-attr-2-key" class="er entityLabel">FK</text><rect height="22" width="51.6328125" y="68" x="0" class="er attributeBoxOdd"></rect><text transform="translate(5,79)" style="dominant-baseline: middle; font-size: 10.2px;" y="0" x="0" id="text-entity-RECORDS-70f28e92-d40b-5deb-8a4c-3a369250c583-attr-3-type" class="er entityLabel">int</text><rect height="22" width="65.6875" y="68" x="51.6328125" class="er attributeBoxOdd"></rect><text transform="translate(56.6328125,79)" style="dominant-baseline: middle; font-size: 10.2px;" y="0" x="0" id="text-entity-RECORDS-70f28e92-d40b-5deb-8a4c-3a369250c583-attr-3-name" class="er entityLabel">difficulty_id</text><rect height="22" width="21.5625" y="68" x="117.3203125" class="er attributeBoxOdd"></rect><text transform="translate(122.3203125,79)" style="dominant-baseline: middle; font-size: 10.2px;" y="0" x="0" id="text-entity-RECORDS-70f28e92-d40b-5deb-8a4c-3a369250c583-attr-3-key" class="er entityLabel">FK</text><rect height="22" width="51.6328125" y="90" x="0" class="er attributeBoxEven"></rect><text transform="translate(5,101)" style="dominant-baseline: middle; font-size: 10.2px;" y="0" x="0" id="text-entity-RECORDS-70f28e92-d40b-5deb-8a4c-3a369250c583-attr-4-type" class="er entityLabel">int</text><rect height="22" width="65.6875" y="90" x="51.6328125" class="er attributeBoxEven"></rect><text transform="translate(56.6328125,101)" style="dominant-baseline: middle; font-size: 10.2px;" y="0" x="0" id="text-entity-RECORDS-70f28e92-d40b-5deb-8a4c-3a369250c583-attr-4-name" class="er entityLabel">score</text><rect height="22" width="21.5625" y="90" x="117.3203125" class="er attributeBoxEven"></rect><text transform="translate(122.3203125,101)" style="dominant-baseline: middle; font-size: 10.2px;" y="0" x="0" id="text-entity-RECORDS-70f28e92-d40b-5deb-8a4c-3a369250c583-attr-4-key" class="er entityLabel"></text><rect height="22" width="51.6328125" y="112" x="0" class="er attributeBoxOdd"></rect><text transform="translate(5,123)" style="dominant-baseline: middle; font-size: 10.2px;" y="0" x="0" id="text-entity-RECORDS-70f28e92-d40b-5deb-8a4c-3a369250c583-attr-5-type" class="er entityLabel">string</text><rect height="22" width="65.6875" y="112" x="51.6328125" class="er attributeBoxOdd"></rect><text transform="translate(56.6328125,123)" style="dominant-baseline: middle; font-size: 10.2px;" y="0" x="0" id="text-entity-RECORDS-70f28e92-d40b-5deb-8a4c-3a369250c583-attr-5-name" class="er entityLabel">grade</text><rect height="22" width="21.5625" y="112" x="117.3203125" class="er attributeBoxOdd"></rect><text transform="translate(122.3203125,123)" style="dominant-baseline: middle; font-size: 10.2px;" y="0" x="0" id="text-entity-RECORDS-70f28e92-d40b-5deb-8a4c-3a369250c583-attr-5-key" class="er entityLabel"></text><rect height="22" width="51.6328125" y="134" x="0" class="er attributeBoxEven"></rect><text transform="translate(5,145)" style="dominant-baseline: middle; font-size: 10.2px;" y="0" x="0" id="text-entity-RECORDS-70f28e92-d40b-5deb-8a4c-3a369250c583-attr-6-type" class="er entityLabel">float</text><rect height="22" width="65.6875" y="134" x="51.6328125" class="er attributeBoxEven"></rect><text transform="translate(56.6328125,145)" style="dominant-baseline: middle; font-size: 10.2px;" y="0" x="0" id="text-entity-RECORDS-70f28e92-d40b-5deb-8a4c-3a369250c583-attr-6-name" class="er entityLabel">accuracy</text><rect height="22" width="21.5625" y="134" x="117.3203125" class="er attributeBoxEven"></rect><text transform="translate(122.3203125,145)" style="dominant-baseline: middle; font-size: 10.2px;" y="0" x="0" id="text-entity-RECORDS-70f28e92-d40b-5deb-8a4c-3a369250c583-attr-6-key" class="er entityLabel"></text><rect height="22" width="51.6328125" y="156" x="0" class="er attributeBoxOdd"></rect><text transform="translate(5,167)" style="dominant-baseline: middle; font-size: 10.2px;" y="0" x="0" id="text-entity-RECORDS-70f28e92-d40b-5deb-8a4c-3a369250c583-attr-7-type" class="er entityLabel">int</text><rect height="22" width="65.6875" y="156" x="51.6328125" class="er attributeBoxOdd"></rect><text transform="translate(56.6328125,167)" style="dominant-baseline: middle; font-size: 10.2px;" y="0" x="0" id="text-entity-RECORDS-70f28e92-d40b-5deb-8a4c-3a369250c583-attr-7-name" class="er entityLabel">combo</text><rect height="22" width="21.5625" y="156" x="117.3203125" class="er attributeBoxOdd"></rect><text transform="translate(122.3203125,167)" style="dominant-baseline: middle; font-size: 10.2px;" y="0" x="0" id="text-entity-RECORDS-70f28e92-d40b-5deb-8a4c-3a369250c583-attr-7-key" class="er entityLabel"></text><rect height="22" width="51.6328125" y="178" x="0" class="er attributeBoxEven"></rect><text transform="translate(5,189)" style="dominant-baseline: middle; font-size: 10.2px;" y="0" x="0" id="text-entity-RECORDS-70f28e92-d40b-5deb-8a4c-3a369250c583-attr-8-type" class="er entityLabel">datetime</text><rect height="22" width="65.6875" y="178" x="51.6328125" class="er attributeBoxEven"></rect><text transform="translate(56.6328125,189)" style="dominant-baseline: middle; font-size: 10.2px;" y="0" x="0" id="text-entity-RECORDS-70f28e92-d40b-5deb-8a4c-3a369250c583-attr-8-name" class="er entityLabel">play_date</text><rect height="22" width="21.5625" y="178" x="117.3203125" class="er attributeBoxEven"></rect><text transform="translate(122.3203125,189)" style="dominant-baseline: middle; font-size: 10.2px;" y="0" x="0" id="text-entity-RECORDS-70f28e92-d40b-5deb-8a4c-3a369250c583-attr-8-key" class="er entityLabel"></text><rect height="22" width="51.6328125" y="200" x="0" class="er attributeBoxOdd"></rect><text transform="translate(5,211)" style="dominant-baseline: middle; font-size: 10.2px;" y="0" x="0" id="text-entity-RECORDS-70f28e92-d40b-5deb-8a4c-3a369250c583-attr-9-type" class="er entityLabel">string</text><rect height="22" width="65.6875" y="200" x="51.6328125" class="er attributeBoxOdd"></rect><text transform="translate(56.6328125,211)" style="dominant-baseline: middle; font-size: 10.2px;" y="0" x="0" id="text-entity-RECORDS-70f28e92-d40b-5deb-8a4c-3a369250c583-attr-9-name" class="er entityLabel">image_url</text><rect height="22" width="21.5625" y="200" x="117.3203125" class="er attributeBoxOdd"></rect><text transform="translate(122.3203125,211)" style="dominant-baseline: middle; font-size: 10.2px;" y="0" x="0" id="text-entity-RECORDS-70f28e92-d40b-5deb-8a4c-3a369250c583-attr-9-key" class="er entityLabel"></text><rect height="22" width="51.6328125" y="222" x="0" class="er attributeBoxEven"></rect><text transform="translate(5,233)" style="dominant-baseline: middle; font-size: 10.2px;" y="0" x="0" id="text-entity-RECORDS-70f28e92-d40b-5deb-8a4c-3a369250c583-attr-10-type" class="er entityLabel">datetime</text><rect height="22" width="65.6875" y="222" x="51.6328125" class="er attributeBoxEven"></rect><text transform="translate(56.6328125,233)" style="dominant-baseline: middle; font-size: 10.2px;" y="0" x="0" id="text-entity-RECORDS-70f28e92-d40b-5deb-8a4c-3a369250c583-attr-10-name" class="er entityLabel">created_at</text><rect height="22" width="21.5625" y="222" x="117.3203125" class="er attributeBoxEven"></rect><text transform="translate(122.3203125,233)" style="dominant-baseline: middle; font-size: 10.2px;" y="0" x="0" id="text-entity-RECORDS-70f28e92-d40b-5deb-8a4c-3a369250c583-attr-10-key" class="er entityLabel"></text><rect height="22" width="51.6328125" y="244" x="0" class="er attributeBoxOdd"></rect><text transform="translate(5,255)" style="dominant-baseline: middle; font-size: 10.2px;" y="0" x="0" id="text-entity-RECORDS-70f28e92-d40b-5deb-8a4c-3a369250c583-attr-11-type" class="er entityLabel">boolean</text><rect height="22" width="65.6875" y="244" x="51.6328125" class="er attributeBoxOdd"></rect><text transform="translate(56.6328125,255)" style="dominant-baseline: middle; font-size: 10.2px;" y="0" x="0" id="text-entity-RECORDS-70f28e92-d40b-5deb-8a4c-3a369250c583-attr-11-name" class="er entityLabel">is_verified</text><rect height="22" width="21.5625" y="244" x="117.3203125" class="er attributeBoxOdd"></rect><text transform="translate(122.3203125,255)" style="dominant-baseline: middle; font-size: 10.2px;" y="0" x="0" id="text-entity-RECORDS-70f28e92-d40b-5deb-8a4c-3a369250c583-attr-11-key" class="er entityLabel"></text></g><g transform="translate(372.47265625,686 )" id="entity-RANKINGS-338b6b5e-0bc7-5013-8191-a72a5641176f"><rect height="178" width="146.8828125" y="0" x="0" class="er entityBox"></rect><text transform="translate(73.44140625,12)" style="dominant-baseline: middle; text-anchor: middle; font-size: 12px;" y="0" x="0" id="text-entity-RANKINGS-338b6b5e-0bc7-5013-8191-a72a5641176f" class="er entityLabel">RANKINGS</text><rect height="22" width="51.6328125" y="24" x="0" class="er attributeBoxOdd"></rect><text transform="translate(5,35)" style="dominant-baseline: middle; font-size: 10.2px;" y="0" x="0" id="text-entity-RANKINGS-338b6b5e-0bc7-5013-8191-a72a5641176f-attr-1-type" class="er entityLabel">int</text><rect height="22" width="73.6875" y="24" x="51.6328125" class="er attributeBoxOdd"></rect><text transform="translate(56.6328125,35)" style="dominant-baseline: middle; font-size: 10.2px;" y="0" x="0" id="text-entity-RANKINGS-338b6b5e-0bc7-5013-8191-a72a5641176f-attr-1-name" class="er entityLabel">ranking_id</text><rect height="22" width="21.5625" y="24" x="125.3203125" class="er attributeBoxOdd"></rect><text transform="translate(130.3203125,35)" style="dominant-baseline: middle; font-size: 10.2px;" y="0" x="0" id="text-entity-RANKINGS-338b6b5e-0bc7-5013-8191-a72a5641176f-attr-1-key" class="er entityLabel">PK</text><rect height="22" width="51.6328125" y="46" x="0" class="er attributeBoxEven"></rect><text transform="translate(5,57)" style="dominant-baseline: middle; font-size: 10.2px;" y="0" x="0" id="text-entity-RANKINGS-338b6b5e-0bc7-5013-8191-a72a5641176f-attr-2-type" class="er entityLabel">int</text><rect height="22" width="73.6875" y="46" x="51.6328125" class="er attributeBoxEven"></rect><text transform="translate(56.6328125,57)" style="dominant-baseline: middle; font-size: 10.2px;" y="0" x="0" id="text-entity-RANKINGS-338b6b5e-0bc7-5013-8191-a72a5641176f-attr-2-name" class="er entityLabel">difficulty_id</text><rect height="22" width="21.5625" y="46" x="125.3203125" class="er attributeBoxEven"></rect><text transform="translate(130.3203125,57)" style="dominant-baseline: middle; font-size: 10.2px;" y="0" x="0" id="text-entity-RANKINGS-338b6b5e-0bc7-5013-8191-a72a5641176f-attr-2-key" class="er entityLabel">FK</text><rect height="22" width="51.6328125" y="68" x="0" class="er attributeBoxOdd"></rect><text transform="translate(5,79)" style="dominant-baseline: middle; font-size: 10.2px;" y="0" x="0" id="text-entity-RANKINGS-338b6b5e-0bc7-5013-8191-a72a5641176f-attr-3-type" class="er entityLabel">int</text><rect height="22" width="73.6875" y="68" x="51.6328125" class="er attributeBoxOdd"></rect><text transform="translate(56.6328125,79)" style="dominant-baseline: middle; font-size: 10.2px;" y="0" x="0" id="text-entity-RANKINGS-338b6b5e-0bc7-5013-8191-a72a5641176f-attr-3-name" class="er entityLabel">user_id</text><rect height="22" width="21.5625" y="68" x="125.3203125" class="er attributeBoxOdd"></rect><text transform="translate(130.3203125,79)" style="dominant-baseline: middle; font-size: 10.2px;" y="0" x="0" id="text-entity-RANKINGS-338b6b5e-0bc7-5013-8191-a72a5641176f-attr-3-key" class="er entityLabel">FK</text><rect height="22" width="51.6328125" y="90" x="0" class="er attributeBoxEven"></rect><text transform="translate(5,101)" style="dominant-baseline: middle; font-size: 10.2px;" y="0" x="0" id="text-entity-RANKINGS-338b6b5e-0bc7-5013-8191-a72a5641176f-attr-4-type" class="er entityLabel">int</text><rect height="22" width="73.6875" y="90" x="51.6328125" class="er attributeBoxEven"></rect><text transform="translate(56.6328125,101)" style="dominant-baseline: middle; font-size: 10.2px;" y="0" x="0" id="text-entity-RANKINGS-338b6b5e-0bc7-5013-8191-a72a5641176f-attr-4-name" class="er entityLabel">score</text><rect height="22" width="21.5625" y="90" x="125.3203125" class="er attributeBoxEven"></rect><text transform="translate(130.3203125,101)" style="dominant-baseline: middle; font-size: 10.2px;" y="0" x="0" id="text-entity-RANKINGS-338b6b5e-0bc7-5013-8191-a72a5641176f-attr-4-key" class="er entityLabel"></text><rect height="22" width="51.6328125" y="112" x="0" class="er attributeBoxOdd"></rect><text transform="translate(5,123)" style="dominant-baseline: middle; font-size: 10.2px;" y="0" x="0" id="text-entity-RANKINGS-338b6b5e-0bc7-5013-8191-a72a5641176f-attr-5-type" class="er entityLabel">int</text><rect height="22" width="73.6875" y="112" x="51.6328125" class="er attributeBoxOdd"></rect><text transform="translate(56.6328125,123)" style="dominant-baseline: middle; font-size: 10.2px;" y="0" x="0" id="text-entity-RANKINGS-338b6b5e-0bc7-5013-8191-a72a5641176f-attr-5-name" class="er entityLabel">rank</text><rect height="22" width="21.5625" y="112" x="125.3203125" class="er attributeBoxOdd"></rect><text transform="translate(130.3203125,123)" style="dominant-baseline: middle; font-size: 10.2px;" y="0" x="0" id="text-entity-RANKINGS-338b6b5e-0bc7-5013-8191-a72a5641176f-attr-5-key" class="er entityLabel"></text><rect height="22" width="51.6328125" y="134" x="0" class="er attributeBoxEven"></rect><text transform="translate(5,145)" style="dominant-baseline: middle; font-size: 10.2px;" y="0" x="0" id="text-entity-RANKINGS-338b6b5e-0bc7-5013-8191-a72a5641176f-attr-6-type" class="er entityLabel">datetime</text><rect height="22" width="73.6875" y="134" x="51.6328125" class="er attributeBoxEven"></rect><text transform="translate(56.6328125,145)" style="dominant-baseline: middle; font-size: 10.2px;" y="0" x="0" id="text-entity-RANKINGS-338b6b5e-0bc7-5013-8191-a72a5641176f-attr-6-name" class="er entityLabel">last_updated</text><rect height="22" width="21.5625" y="134" x="125.3203125" class="er attributeBoxEven"></rect><text transform="translate(130.3203125,145)" style="dominant-baseline: middle; font-size: 10.2px;" y="0" x="0" id="text-entity-RANKINGS-338b6b5e-0bc7-5013-8191-a72a5641176f-attr-6-key" class="er entityLabel"></text><rect height="22" width="51.6328125" y="156" x="0" class="er attributeBoxOdd"></rect><text transform="translate(5,167)" style="dominant-baseline: middle; font-size: 10.2px;" y="0" x="0" id="text-entity-RANKINGS-338b6b5e-0bc7-5013-8191-a72a5641176f-attr-7-type" class="er entityLabel">int</text><rect height="22" width="73.6875" y="156" x="51.6328125" class="er attributeBoxOdd"></rect><text transform="translate(56.6328125,167)" style="dominant-baseline: middle; font-size: 10.2px;" y="0" x="0" id="text-entity-RANKINGS-338b6b5e-0bc7-5013-8191-a72a5641176f-attr-7-name" class="er entityLabel">previous_rank</text><rect height="22" width="21.5625" y="156" x="125.3203125" class="er attributeBoxOdd"></rect><text transform="translate(130.3203125,167)" style="dominant-baseline: middle; font-size: 10.2px;" y="0" x="0" id="text-entity-RANKINGS-338b6b5e-0bc7-5013-8191-a72a5641176f-attr-7-key" class="er entityLabel"></text></g><rect height="14" width="41.1015625" y="582.6420288085938" x="26.801998138427734" class="er relationshipLabelBox"></rect><text style="text-anchor: middle; dominant-baseline: middle; font-size: 12px;" y="589.6420288085938" x="47.352779388427734" id="rel1" class="er relationshipLabel">submits</text><rect height="14" width="46.0546875" y="582.2899780273438" x="286.05706787109375" class="er relationshipLabelBox"></rect><text style="text-anchor: middle; dominant-baseline: middle; font-size: 12px;" y="589.2899780273438" x="309.08441162109375" id="rel2" class="er relationshipLabel">achieves</text><rect height="14" width="44.109375" y="274" x="373.85931396484375" class="er relationshipLabelBox"></rect><text style="text-anchor: middle; dominant-baseline: middle; font-size: 12px;" y="281" x="395.91400146484375" id="rel3" class="er relationshipLabel">includes</text><rect height="14" width="32.578125" y="574.4380493164062" x="217.20970153808594" class="er relationshipLabelBox"></rect><text style="text-anchor: middle; dominant-baseline: middle; font-size: 12px;" y="581.4380493164062" x="233.49876403808594" id="rel4" class="er relationshipLabel">tracks</text><rect height="14" width="28.4375" y="592.9854736328125" x="470.36102294921875" class="er relationshipLabelBox"></rect><text style="text-anchor: middle; dominant-baseline: middle; font-size: 12px;" y="599.9854736328125" x="484.57977294921875" id="rel5" class="er relationshipLabel">ranks</text></svg>